<svg width="72" height="78" viewBox="0 0 72 78" fill="none" xmlns="http://www.w3.org/2000/svg">
<path d="M51.7716 15.1688C52.438 15.1688 53.0644 14.9093 53.5356 14.4381C54.007 13.9668 54.2665 13.3404 54.2665 12.6739C54.2665 12.0075 54.007 11.3811 53.5356 10.9098L51.066 8.44009C50.5948 7.96877 49.9684 7.70935 49.3019 7.70935C48.6354 7.70935 48.009 7.96877 47.5378 8.44009C46.6434 9.33443 46.5721 10.7443 47.3224 11.7217L46.7349 12.2723C44.6358 10.5949 42.1212 9.41692 39.3721 8.9217V7.66625C41.3487 7.59219 42.9341 5.96202 42.9341 3.9677C42.9341 1.92636 41.2733 0.265625 39.232 0.265625H33.6364C31.5951 0.265625 29.9343 1.92636 29.9343 3.9677C29.9343 5.96202 31.5197 7.59219 33.4963 7.66625V8.9217C30.7231 9.42133 28.1886 10.6156 26.0786 12.3165L25.5729 11.7911C26.3813 10.8121 26.3279 9.35589 25.4123 8.44009C24.941 7.96877 24.3144 7.70935 23.6481 7.70935C22.9817 7.70935 22.3552 7.96877 21.884 8.44009L19.4143 10.9098C18.9431 11.3811 18.6836 12.0075 18.6836 12.6739C18.6836 13.3404 18.9431 13.9668 19.4143 14.438C19.8856 14.9093 20.5121 15.1688 21.1785 15.1688C21.7423 15.1688 22.2773 14.9823 22.7142 14.6397L23.2652 15.2124C21.1581 17.9868 19.9056 21.444 19.9056 25.1887C19.9056 34.3025 27.3204 41.7172 36.4342 41.7172C45.5481 41.7172 52.9627 34.3025 52.9627 25.1887C52.9627 21.418 51.6926 17.9388 49.5589 15.1546L50.1673 14.5843C50.6162 14.9624 51.1779 15.1688 51.7716 15.1688ZM50.0237 25.1886C50.0237 32.6818 43.9274 38.7781 36.4342 38.7781C28.9409 38.7781 22.8446 32.6818 22.8446 25.1886C22.8446 17.6953 28.9409 11.599 36.4342 11.599C43.9275 11.5991 50.0237 17.6953 50.0237 25.1886Z" fill="white"/>
<path d="M36.4319 14.709C30.6539 14.709 25.9531 19.4097 25.9531 25.1877C25.9531 30.9657 30.6539 35.6664 36.4319 35.6664C42.2099 35.6664 46.9105 30.9657 46.9105 25.1877C46.9105 19.4097 42.2099 14.709 36.4319 14.709ZM41.9996 22.2651L38.5392 25.2956C38.5137 25.7997 38.3107 26.2965 37.9257 26.6815C37.1007 27.5065 35.7631 27.5065 34.9381 26.6815C34.1131 25.8565 34.1131 24.5189 34.9381 23.6939C35.3945 23.2375 36.0077 23.0347 36.6043 23.0834L40.0632 20.0542C40.6738 19.5196 41.6021 19.5809 42.1369 20.1914C42.6716 20.802 42.6101 21.7304 41.9996 22.2651Z" fill="white"/>
<path d="M68.273 21.3966C65.8118 21.045 63.3505 20.6934 60.5377 20.6934C51.7477 20.6934 43.3093 23.1546 35.9257 28.077C28.5421 23.1546 20.1037 20.6934 11.3136 20.6934C8.85244 20.6934 6.03963 21.045 3.57843 21.3966C2.17203 21.3966 0.765625 23.1546 0.765625 24.561L0.765625 66.753C0.765625 68.8626 2.17203 70.269 4.28163 70.269C4.63323 70.269 4.63323 70.269 4.98483 70.269C7.09444 69.9174 9.20404 69.5658 11.3136 69.5658C19.4005 69.5658 27.1357 72.027 33.8161 76.9494C34.8709 78.0042 36.6289 78.0042 38.0353 76.9494C46.4737 70.9722 57.0217 68.511 66.8666 70.269C68.6246 70.6206 70.7342 69.2142 71.0858 67.4562C71.0858 67.1046 71.0858 67.1046 71.0858 66.753V24.561C71.0858 23.1546 69.6794 21.3966 68.273 21.3966Z" fill="white"/>
</svg>
