<svg width="432" height="410" viewBox="0 0 432 410" fill="none" xmlns="http://www.w3.org/2000/svg">
<path d="M88.0369 410H343.957C350.991 410.017 357.772 407.359 362.94 402.559C384.499 382.478 401.746 358.172 413.621 331.137C425.496 304.101 431.747 274.908 431.991 245.351C433.095 125.171 335.986 26.2842 216.521 26.0006C96.9883 25.7168 0.00014188 123.115 0.00014188 243.302C-0.0339845 273.216 6.08856 302.812 17.9823 330.229C29.876 357.645 47.2832 382.287 69.1079 402.603C74.2651 407.381 81.026 410.023 88.0369 410V410Z" fill="url(#paint0_linear_134_57)"/>
<path d="M253.492 409.064H60.6781C58.3356 409.064 56.016 408.603 53.8517 407.707C51.6875 406.81 49.721 405.496 48.0646 403.84C46.4081 402.183 45.0942 400.217 44.1977 398.053C43.3012 395.888 42.8398 393.569 42.8398 391.226V83.4783C42.8399 78.7473 44.7192 74.21 48.0646 70.8647C51.4099 67.5194 55.9471 65.64 60.6781 65.64H192.979L271.33 143.991V391.226C271.33 395.957 269.451 400.494 266.106 403.84C262.76 407.185 258.223 409.064 253.492 409.064Z" fill="#E5E9F1"/>
<g filter="url(#filter0_d_134_57)">
<path d="M290.23 370.36H97.4159C95.0734 370.36 92.7538 369.899 90.5895 369.002C88.4253 368.106 86.4588 366.792 84.8024 365.135C83.1459 363.479 81.832 361.512 80.9355 359.348C80.039 357.184 79.5776 354.864 79.5776 352.522V44.7739C79.5776 42.4313 80.039 40.1117 80.9355 37.9475C81.832 35.7832 83.1459 33.8168 84.8024 32.1603C86.4588 30.5039 88.4253 29.1899 90.5895 28.2935C92.7538 27.397 95.0734 26.9356 97.4159 26.9356H229.717L308.068 105.286V352.522C308.068 354.864 307.607 357.184 306.71 359.348C305.814 361.512 304.5 363.479 302.843 365.135C301.187 366.792 299.22 368.106 297.056 369.002C294.892 369.899 292.572 370.36 290.23 370.36Z" fill="white"/>
</g>
<path d="M308.068 105.286H247.556C242.825 105.286 238.287 103.407 234.942 100.062C231.597 96.7163 229.717 92.1791 229.717 87.4481V26.9356L308.068 105.286Z" fill="#5A529B"/>
<path d="M163.031 198.501C170.901 198.501 177.282 192.121 177.282 184.251C177.282 176.38 170.901 170 163.031 170C155.16 170 148.78 176.38 148.78 184.251C148.78 192.121 155.16 198.501 163.031 198.501Z" fill="#5A529B"/>
<path d="M223.695 198.501C231.566 198.501 237.946 192.121 237.946 184.251C237.946 176.38 231.566 170 223.695 170C215.825 170 209.445 176.38 209.445 184.251C209.445 192.121 215.825 198.501 223.695 198.501Z" fill="#5A529B"/>
<path d="M238.725 251.839C237.543 251.841 236.373 251.609 235.281 251.156C234.188 250.704 233.196 250.04 232.362 249.203C222.011 238.876 207.985 233.076 193.363 233.075C178.741 233.075 164.716 238.875 154.365 249.203C153.529 250.039 152.537 250.702 151.445 251.154C150.353 251.607 149.183 251.84 148.001 251.84C146.819 251.84 145.648 251.607 144.556 251.155C143.464 250.703 142.472 250.04 141.636 249.204C140.8 248.368 140.137 247.376 139.685 246.284C139.233 245.192 139 244.021 139 242.839C139 241.657 139.233 240.487 139.686 239.395C140.138 238.303 140.801 237.311 141.637 236.475C155.367 222.777 173.969 215.084 193.363 215.084C212.757 215.084 231.36 222.777 245.089 236.475C246.348 237.733 247.205 239.337 247.553 241.083C247.9 242.829 247.722 244.638 247.041 246.283C246.359 247.928 245.206 249.333 243.726 250.322C242.246 251.311 240.506 251.839 238.726 251.839L238.725 251.839Z" fill="#5A529B"/>
<path d="M291.447 282.485L274.91 299.022L337.141 361.254L353.678 344.717L291.447 282.485Z" fill="#D4D9E3"/>
<path d="M101.287 118.935C83.0622 137.16 70.6509 160.38 65.6227 185.658C60.5944 210.937 63.1751 237.139 73.0384 260.951C82.9017 284.763 99.6045 305.116 121.035 319.435C142.465 333.754 167.66 341.397 193.434 341.397C219.208 341.397 244.403 333.754 265.833 319.435C287.264 305.116 303.966 284.763 313.83 260.951C323.693 237.139 326.274 210.937 321.245 185.658C316.217 160.38 303.806 137.16 285.581 118.935C273.48 106.834 259.114 97.2348 243.304 90.6858C227.493 84.1369 210.547 80.7661 193.434 80.7661C176.321 80.7661 159.375 84.1369 143.565 90.6858C127.754 97.2348 113.388 106.834 101.287 118.935ZM268.585 286.232C253.721 301.096 234.784 311.218 214.168 315.319C193.552 319.42 172.183 317.315 152.763 309.271C133.343 301.227 116.744 287.605 105.066 270.127C93.3878 252.65 87.1546 232.102 87.1546 211.082C87.1546 190.061 93.3878 169.513 105.066 152.036C116.744 134.558 133.343 120.936 152.763 112.892C172.183 104.848 193.552 102.743 214.168 106.844C234.784 110.945 253.722 121.067 268.585 135.931C288.516 155.862 299.713 182.895 299.713 211.082C299.713 239.269 288.516 266.301 268.585 286.232Z" fill="#D4D9E3"/>
<path d="M304.573 312.929L304.573 312.929C294.21 323.292 294.21 340.095 304.573 350.458L343.858 389.743C354.222 400.106 371.024 400.106 381.388 389.743L381.388 389.743C391.751 379.379 391.751 362.577 381.388 352.213L342.103 312.929C331.74 302.565 314.937 302.565 304.573 312.929Z" fill="#5A529B"/>
<defs>
<filter id="filter0_d_134_57" x="49.5776" y="0.935608" width="288.49" height="403.424" filterUnits="userSpaceOnUse" color-interpolation-filters="sRGB">
<feFlood flood-opacity="0" result="BackgroundImageFix"/>
<feColorMatrix in="SourceAlpha" type="matrix" values="0 0 0 0 0 0 0 0 0 0 0 0 0 0 0 0 0 0 127 0" result="hardAlpha"/>
<feOffset dy="4"/>
<feGaussianBlur stdDeviation="15"/>
<feComposite in2="hardAlpha" operator="out"/>
<feColorMatrix type="matrix" values="0 0 0 0 0 0 0 0 0 0 0 0 0 0 0 0 0 0 0.1 0"/>
<feBlend mode="normal" in2="BackgroundImageFix" result="effect1_dropShadow_134_57"/>
<feBlend mode="normal" in="SourceGraphic" in2="effect1_dropShadow_134_57" result="shape"/>
</filter>
<linearGradient id="paint0_linear_134_57" x1="216" y1="26" x2="216" y2="410" gradientUnits="userSpaceOnUse">
<stop stop-color="#FBFDFE"/>
<stop offset="1" stop-color="#F0F5FA"/>
</linearGradient>
</defs>
</svg>
