<svg width="17" height="18" viewBox="0 0 17 18" fill="none"
    xmlns="http://www.w3.org/2000/svg">
    <path fill-rule="evenodd" clip-rule="evenodd" d="M8.15788 6.89474C9.32072 6.89474 10.2631 7.83715 10.2631 9C10.2631 10.1628 9.32072 11.1053 8.15788 11.1053C6.99503 11.1053 6.05261 10.1628 6.05261 9C6.05261 7.83715 6.99503 6.89474 8.15788 6.89474Z" stroke="#464646" stroke-width="1.5" stroke-linecap="round" stroke-linejoin="round"/>
    <path fill-rule="evenodd" clip-rule="evenodd" d="M15.0362 5.00021C14.4606 3.9962 13.1863 3.65266 12.1903 4.23244C11.324 4.73569 10.2413 4.106 10.2413 3.09867C10.2413 1.93995 9.30811 1 8.1577 1C7.00729 1 6.07407 1.93995 6.07407 3.09867C6.07407 4.106 4.99138 4.73569 4.12589 4.23244C3.12909 3.65266 1.8548 3.9962 1.27918 5.00021C0.704388 6.00421 1.04546 7.2877 2.04227 7.86665C2.90776 8.37073 2.90776 9.62927 2.04227 10.1334C1.04546 10.7131 0.704388 11.9966 1.27918 12.9998C1.8548 14.0038 3.12909 14.3473 4.12506 13.7684H4.12589C4.99138 13.2643 6.07407 13.894 6.07407 14.9013C6.07407 16.06 7.00729 17 8.1577 17C9.30811 17 10.2413 16.06 10.2413 14.9013C10.2413 13.894 11.324 13.2643 12.1903 13.7684C13.1863 14.3473 14.4606 14.0038 15.0362 12.9998C15.6118 11.9966 15.2699 10.7131 14.274 10.1334H14.2731C13.4076 9.62927 13.4076 8.37073 14.274 7.86665C15.2699 7.2877 15.6118 6.00421 15.0362 5.00021Z" stroke="#464646" stroke-width="1.5" stroke-linecap="round" stroke-linejoin="round"/>
</svg>
