<svg width="14" height="18" viewBox="0 0 14 18" fill="none" xmlns="http://www.w3.org/2000/svg">
<path fill-rule="evenodd" clip-rule="evenodd" d="M7 16.4781C3.76371 16.4781 1 16.0164 1 14.1676C1 12.3188 3.74618 10.6121 7 10.6121C10.2363 10.6121 13 12.3023 13 14.1511C13 15.9992 10.2538 16.4781 7 16.4781Z" stroke="#464646" stroke-width="1.5" stroke-linecap="round" stroke-linejoin="round"/>
<path fill-rule="evenodd" clip-rule="evenodd" d="M6.99356 8.05014C9.11735 8.05014 10.8387 6.47224 10.8387 4.52544C10.8387 2.57863 9.11735 1 6.99356 1C4.86977 1 3.14761 2.57863 3.14761 4.52544C3.14046 6.46567 4.84985 8.04357 6.96646 8.05014C6.97603 8.05014 6.98479 8.05014 6.99356 8.05014Z" stroke="#464646" stroke-width="1.5" stroke-linecap="round" stroke-linejoin="round"/>
</svg>
